<?xml version="1.0" encoding="UTF-8"?>
<svg id="Capa_2" data-name="Capa 2" xmlns="http://www.w3.org/2000/svg" viewBox="0 0 596.16 313.92">
  <defs>
    <style>
      .cls-1 {
        fill: #fff;
      }

      .cls-2 {
        fill: none;
      }
    </style>
  </defs>
  <g id="Capa_1-2" data-name="Capa 1">
    <g>
      <g>
        <g>
          <path class="cls-1" d="M558.71,144.98v114.8h-80.3v-114.8c0-5.15-1.62-9.07-5.24-12.7-3.62-3.62-7.54-5.24-12.7-5.24s-9.06,1.62-12.7,5.24c-3.61,3.62-5.22,7.54-5.22,12.7v114.8h-80.28v-114.8c0-5.15-1.62-9.07-5.24-12.7-3.62-3.62-7.54-5.24-12.71-5.24-2.22,0-4.2,.3-6.03,.93,.02-.46,.02-.91,.02-1.37,0-23.35-9.69-46.34-26.59-63.06-2.87-2.83-5.87-5.43-9-7.81,12.68-5.96,26.59-8.97,41.61-8.97,21.88,0,41.36,6.33,58.09,18.87,16.72-12.54,36.19-18.87,58.07-18.87,26.99,0,50.35,9.67,69.45,28.77,19.1,19.1,28.79,42.45,28.79,69.45Z"/>
          <g>
            <polygon class="cls-1" points="324.92 260.69 243.64 260.69 217.42 226.71 298.51 226.71 324.22 259.78 324.92 260.69"/>
            <path class="cls-1" d="M329.51,126.6c0,2.99-.16,5.94-.47,8.86-.12,1.37-.3,2.73-.51,4.06-.51,3.36-1.21,6.65-2.13,9.87-3.64,12.87-10.38,24.51-19.84,33.96-14.84,14.84-34.87,23-56.4,23h-120.37v-56.47h98.11c6.47,0,12.05-2.27,16.51-6.75,.63-.63,1.23-1.28,1.78-1.97,3.41-4.17,5.15-9.06,5.15-14.56,0-3.04-.58-5.96-1.65-8.63-3.45-8.67-11.91-14.81-21.79-14.81H117.66v10.66H39.65V46.85H249.8c1.39-.02,2.76,0,4.13,.05,14.37,.58,28.17,5.26,40.15,13.45,4.04,2.74,7.88,5.91,11.45,9.44,15.25,15.07,23.99,35.77,23.99,56.8Z"/>
          </g>
        </g>
        <g>
          <path class="cls-1" d="M374.35,263.83c2.53-.03,4.67,2.1,4.64,4.63,0,.92-.25,1.76-.74,2.51-.48,.74-1.13,1.31-1.93,1.68l2.67,3.44h-5.09l-2.31-2.99h-4.27v2.99h-4.78v-12.26h11.82Zm-7.03,3.59v2.09h5.83c.29,0,.54-.1,.74-.3s.31-.46,.31-.74c0-.58-.47-1.05-1.05-1.05h-5.83Z"/>
          <path class="cls-1" d="M380.45,263.84h14.35v3.14h-9.57v1.57h9.57v2.84h-9.57v1.57h9.57v3.15h-14.35v-12.26Z"/>
          <path class="cls-1" d="M409.28,263.82h4.79v12.26h-5.38l-6.59-7.49v7.49h-4.78v-12.26h6.58l5.38,6.5v-6.5Z"/>
          <path class="cls-1" d="M424.1,268.56c3.42,.17,8.23,.41,8.22,3.49,0,3.5-4.01,4.33-8.32,4.33-4.3,0-7.86-.53-8.32-4.33h5.01c.55,.95,1.82,1.2,3.31,1.2s3.31-.25,3.31-1.2c0-.54-1.49-.62-3.41-.71-3.42-.17-8.23-.41-8.22-3.48,0-3.5,4.02-4.34,8.32-4.34,4.3,.03,7.87,.51,8.32,4.34h-5.01c-.55-.97-1.82-1.2-3.31-1.2s-3.31,.22-3.31,1.2c0,.54,1.49,.61,3.41,.7Z"/>
          <path class="cls-1" d="M449.9,269.5v.89c.02,4.63-3.76,5.98-8.37,5.98-4.62,0-8.39-1.35-8.38-5.98v-.89c-.02-4.64,3.76-5.98,8.38-5.98,4.62,0,8.37,1.35,8.37,5.98Zm-4.78,.29c.03-2-1.63-2.36-3.59-2.39-1.96,.03-3.62,.39-3.59,2.39v.3c-.03,2.01,1.63,2.37,3.59,2.4,1.95-.03,3.61-.39,3.59-2.4v-.3Z"/>
          <path class="cls-1" d="M459.37,263.82h5.98l4.78,6.13,4.79-6.13h5.98v12.26h-4.78v-6.54l-4.79,6.54h-2.39l-4.79-6.54v6.54h-4.78v-12.26Z"/>
          <path class="cls-1" d="M488.44,263.82v12.26h-4.78v-12.26h4.78Z"/>
          <path class="cls-1" d="M506.57,271c-.3,4.14-3.93,5.38-8.35,5.38-4.6,0-8.39-1.34-8.38-5.98v-.89c-.02-4.64,3.78-5.97,8.38-5.98,4.42,0,8.05,1.25,8.35,5.38h-4.9c-.45-1.2-1.81-1.49-3.45-1.49-1.95,.03-3.61,.37-3.59,2.39v.3c-.03,2,1.63,2.36,3.59,2.39,1.64,0,3.01-.29,3.45-1.5h4.9Z"/>
          <path class="cls-1" d="M512.76,271.89v4.19h-4.78v-12.26h4.78v4.19h7.18v-4.19h4.79v12.26h-4.79v-4.19h-7.18Z"/>
          <path class="cls-1" d="M527.49,263.84h14.35v3.14h-9.57v1.57h9.57v2.84h-9.57v1.57h9.57v3.15h-14.35v-12.26Z"/>
          <path class="cls-1" d="M549.15,263.82v8.38h9.57v3.89h-14.35v-12.26h4.78Z"/>
        </g>
      </g>
      <rect class="cls-2" width="596.16" height="313.92"/>
    </g>
  </g>
</svg>